PathFileType	4	(X/Y/Z)	pose_F01_0-96.trc
DataRate	CameraRate	NumFrames	NumMarkers	Units	OrigDataRate	OrigDataStartFrame	OrigNumFrames
30	30	6	21	m	30	36	96
Frame#	Time	CHip			RHip			RKnee			RAnkle			RBigToe			RSmallToe			RHeel			LHip			LKnee			LAnkle			LBigToe			LSmallToe			LHeel			Neck			Nose			RShoulder			RElbow			RWrist			LShoulder			LElbow			LWrist			
		X1	Y1	Z1	X2	Y2	Z2	X3	Y3	Z3	X4	Y4	Z4	X5	Y5	Z5	X6	Y6	Z6	X7	Y7	Z7	X8	Y8	Z8	X9	Y9	Z9	X10	Y10	Z10	X11	Y11	Z11	X12	Y12	Z12	X13	Y13	Z13	X14	Y14	Z14	X15	Y15	Z15	X16	Y16	Z16	X17	Y17	Z17	X18	Y18	Z18	X19	Y19	Z19	X20	Y20	Z20	X21	Y21	Z21	
36	1.2	-0.2239236296117541	1.845282898130257	-0.5655940672960992	-0.23625567303105274	1.848699435157284	-0.5056865785590386	-0.2949956623337308	1.7030910287016714	-0.49118515244564187	-0.28792533666879694	1.554088188055137	-0.45765969902961984							-0.25863356994696884	1.540605207281168	-0.47457187921001304	-0.21247782085757674	1.8447046013913795	-0.6325604611007176	-0.23635698593609333	1.6837180738618986	-0.6246732789581526	-0.17913496478922802	1.5756009557195467	-0.602803689269613	-0.20428054138447832	1.537093992634044	-0.6362531790097501	-0.18543416817099084	1.5433382800949986	-0.651831366763966	-0.16577538992803392	1.56783588374076	-0.5859263477272477	-0.27724006923685257	2.0101067443520284	-0.5984769503072571	-0.351399750929608	2.054309801485063	-0.5885256682902605	-0.27621278538530303	2.0072194658157763	-0.517038951510288	-0.22078975680593244	1.9174315087439524	-0.4973395951313134	-0.23453595682066114	1.843893304392463	-0.4305857907518094	-0.27767607870419164	2.0069452944240913	-0.6812159901830661	-0.3487093135848606	1.9296275322062735	-0.6870358679943882	-0.46636145632564985	1.9062738486031148	-0.6774799056116148
37	1.2333333333333334	-0.2254789632825764	1.8483646366805189	-0.5724263305069114	-0.2368618255928111	1.8514333714860225	-0.509204279516078	-0.2928733471333729	1.7026991662924784	-0.4933447549943499	-0.28792533666879694	1.554088188055137	-0.45765969902961984							-0.25863356994696884	1.540605207281168	-0.47457187921001304	-0.21214282691907707	1.8472814936138913	-0.6331125503664756	-0.23589349072645982	1.686503479981424	-0.6255022448875914	-0.17716265569729714	1.5770733374734385	-0.6047772231249775	-0.2045260838485401	1.535412944795828	-0.6356180545906884	-0.18568205547705294	1.5415975612563504	-0.6511877651981614	-0.16356655923014154	1.5678352537521556	-0.5881281395773564	-0.2719797579144392	2.013532522883299	-0.6000716035743162	-0.3490854392681012	2.057829637713158	-0.5909321297027387	-0.2718541088938903	2.0105262079265533	-0.5213569330310376	-0.22078975680593244	1.9174315087439524	-0.4973395951313134	-0.23453595682066114	1.843893304392463	-0.4305857907518094	-0.27448236763524575	2.0154218188243047	-0.68177712140956	-0.33885833744950866	1.943499330752066	-0.6858871148840365	-0.45971167390423684	1.9306726642618521	-0.6804648176206731
38	1.2666666666666666	-0.22544216165450173	1.8483041445330926	-0.5724017255265813	-0.2348297911105982	1.8501515219833318	-0.511069156318301	-0.2930537336744445	1.7041547091257299	-0.4933836345273912	-0.28792533666879694	1.554088188055137	-0.45765969902961984							-0.25863356994696884	1.540605207281168	-0.47457187921001304	-0.2121113480077511	1.8472923895927518	-0.6331253945765053	-0.23393245348089212	1.6884332140450578	-0.627542405125468	-0.17746949212222712	1.5787469404989583	-0.6046645573573564	-0.20450912739747495	1.5353346056563761	-0.63559997712821	-0.1856824622554526	1.54158858554554	-0.6512166197083937	-0.1657915382746701	1.5687466992251593	-0.5858195709254259	-0.2718444349678077	2.016422565832801	-0.6004619377274117	-0.3445847033448701	2.0656734510543275	-0.5962734665963652	-0.2738440961408959	2.0161923521600085	-0.5205101125926904	-0.22078975680593244	1.9174315087439524	-0.4973395951313134	-0.23453595682066114	1.843893304392463	-0.4305857907518094	-0.2722656990638004	2.019507914582983	-0.6846080296065152	-0.3436203395742319	1.9465249324212248	-0.7016053237205362	-0.45645415414280266	1.942270306795811	-0.6907303574731092
39	1.3	-0.2276279683202567	1.8547435948193378	-0.579913933694677	-0.2359083766835758	1.8543212313052582	-0.5151418980512633	-0.29400732614912795	1.7036851928593657	-0.4965251028792883	-0.28792533666879694	1.554088188055137	-0.45765969902961984							-0.25863356994696884	1.540605207281168	-0.47457187921001304	-0.21320780377400783	1.8531706708206488	-0.6368952787549941	-0.23401866133373372	1.6896883125669788	-0.6275853539697579	-0.1769058364798742	1.5783755771475818	-0.6053582850096346	-0.20311388430880573	1.536146134479419	-0.6330584741156785	-0.18533819230784346	1.5435450020416452	-0.6515533147826227	-0.16475173510171917	1.5706191876441564	-0.5828766161783101	-0.2724791606333755	2.0206086509200993	-0.6038641698173125	-0.33939199446530055	2.071817477719593	-0.5986277061248167	-0.27474118674234776	2.018827735419115	-0.5238544471991711	-0.22078975680593244	1.9174315087439524	-0.4973395951313134	-0.23453595682066114	1.843893304392463	-0.4305857907518094	-0.2697550656677814	2.024329456081542	-0.6870345626477221	-0.33504543997156633	1.9536701266964605	-0.7137674843473236	-0.45319663438136853	1.9538679493297697	-0.7009958973255453
40	1.3333333333333333	-0.22844881215210813	1.853284034012524	-0.5830048504953299	-0.23788906961698328	1.8545395283275308	-0.5216335886321105	-0.2939238466144241	1.7030670067674434	-0.49668881294547157	-0.28792533666879694	1.554088188055137	-0.45765969902961984							-0.25863356994696884	1.540605207281168	-0.47457187921001304	-0.2140815334541023	1.8535099838518774	-0.6402336019050637	-0.2340320630558378	1.686848482922121	-0.6272867097022339	-0.177392665096983	1.5755634869889792	-0.6043560183317208	-0.20596366660655463	1.5350080905596233	-0.638247559816352	-0.18707837567562755	1.5411483019400751	-0.6539095537502323	-0.1658998331154163	1.5666105511476738	-0.5850954473379566	-0.2704616073365465	2.020809939653882	-0.6059401706797493	-0.337113038731666	2.074575012596515	-0.6012648875693914	-0.27380754642327976	2.017672855451005	-0.5210265109039909	-0.22078975680593244	1.9174315087439524	-0.4973395951313134	-0.23453595682066114	1.843893304392463	-0.4305857907518094	-0.26758501006831487	2.0248154926217676	-0.689297029041349	-0.33737986745186876	1.9550647827409258	-0.7120038596694176	-0.44573413318058835	1.9726729078242597	-0.7086043492074662
41	1.3666666666666667	-0.22929304551644597	1.8585788367387666	-0.5868453851265997	-0.2417714001660278	1.8571855781636768	-0.5264905664639906	-0.29606567520111626	1.7035762457500996	-0.49466766466827405	-0.28792533666879694	1.554088188055137	-0.45765969902961984							-0.25863356994696884	1.540605207281168	-0.47457187921001304	-0.21797801435454994	1.8604501239837408	-0.6451924687341895	-0.23423321965246555	1.6882721661069957	-0.6273308484794737	-0.17719035160693486	1.5772066922403325	-0.6049774062015822	-0.2057758092816594	1.5363976775114299	-0.63889603323464	-0.1898145287726989	1.5421736099076975	-0.655483948165564	-0.16380178083772357	1.566867692843073	-0.5874346880945425	-0.27051195049897336	2.0222968813179816	-0.6063641456418347	-0.33499519857629223	2.0772451327720796	-0.603542024287129	-0.2718462178404816	2.0192199067622547	-0.5236313420947792	-0.22078975680593244	1.9174315087439524	-0.4973395951313134	-0.23453595682066114	1.843893304392463	-0.4305857907518094	-0.2705710868902233	2.02686660550688	-0.6902939831655631	-0.3376877983131925	1.9527661279324355	-0.7119153308334103	-0.4333041529840103	1.9794723261240585	-0.7244760494630799
